<?xml version="1.0" standalone="no"?><!DOCTYPE svg PUBLIC "-//W3C//DTD SVG 1.1//EN" "http://www.w3.org/Graphics/SVG/1.1/DTD/svg11.dtd"><svg t="1784649225024" class="icon" viewBox="0 0 1024 1024" version="1.1" xmlns="http://www.w3.org/2000/svg" p-id="9589" xmlns:xlink="http://www.w3.org/1999/xlink" width="200" height="200"><path d="M628.053333 375.04l-183.04 183.466667-70.4-70.4a42.666667 42.666667 0 1 0-60.16 60.16l100.266667 100.693333a42.666667 42.666667 0 0 0 30.293333 12.373333 42.666667 42.666667 0 0 0 29.866667-12.373333l213.333333-213.333333a42.666667 42.666667 0 0 0 0-60.586667 42.666667 42.666667 0 0 0-60.16 0zM512 85.333333a426.666667 426.666667 0 1 0 426.666667 426.666667A426.666667 426.666667 0 0 0 512 85.333333z m0 768a341.333333 341.333333 0 1 1 341.333333-341.333333 341.333333 341.333333 0 0 1-341.333333 341.333333z" p-id="9590" fill="#0e932e"></path></svg>